<mxfile host="app.diagrams.net" modified="2021-05-04T01:19:33.857Z" agent="5.0 (Windows NT 10.0; Win64; x64) AppleWebKit/537.36 (KHTML, like Gecko) Chrome/90.0.4430.93 Safari/537.36" etag="9q9WD_DDjUPpohy2knTb" version="14.6.9" type="github">
  <diagram id="kgpKYQtTHZ0yAKxKKP6v" name="Page-1">
    <mxGraphModel dx="868" dy="450" grid="1" gridSize="10" guides="1" tooltips="1" connect="1" arrows="1" fold="1" page="1" pageScale="1" pageWidth="850" pageHeight="1100" math="0" shadow="0">
      <root>
        <mxCell id="0" />
        <mxCell id="1" parent="0" />
        <mxCell id="gqt7VWo0npzINOgCtDPw-2" value="" style="ellipse;html=1;shape=startState;fillColor=#000000;strokeColor=#ff0000;" vertex="1" parent="1">
          <mxGeometry x="160" y="160" width="30" height="30" as="geometry" />
        </mxCell>
        <mxCell id="gqt7VWo0npzINOgCtDPw-5" value="" style="text;strokeColor=none;fillColor=none;align=left;verticalAlign=middle;spacingTop=-1;spacingLeft=4;spacingRight=4;rotatable=0;labelPosition=right;points=[];portConstraint=eastwest;" vertex="1" parent="1">
          <mxGeometry x="380" y="230" width="20" height="14" as="geometry" />
        </mxCell>
        <mxCell id="gqt7VWo0npzINOgCtDPw-6" value="" style="html=1;verticalAlign=bottom;endArrow=block;" edge="1" parent="1">
          <mxGeometry x="0.2" y="4" width="80" relative="1" as="geometry">
            <mxPoint x="182" y="174" as="sourcePoint" />
            <mxPoint x="320" y="174" as="targetPoint" />
            <mxPoint as="offset" />
          </mxGeometry>
        </mxCell>
        <mxCell id="gqt7VWo0npzINOgCtDPw-7" value="Verifica&lt;br&gt;Disponibilidade" style="text;html=1;align=center;verticalAlign=middle;resizable=0;points=[];autosize=1;strokeColor=none;" vertex="1" parent="1">
          <mxGeometry x="198" y="145" width="100" height="30" as="geometry" />
        </mxCell>
        <mxCell id="gqt7VWo0npzINOgCtDPw-14" value="" style="rounded=1;whiteSpace=wrap;html=1;fontStyle=1" vertex="1" parent="1">
          <mxGeometry x="320" y="145" width="80" height="60" as="geometry" />
        </mxCell>
        <mxCell id="gqt7VWo0npzINOgCtDPw-15" value="Material&lt;br&gt;Disponível?" style="text;html=1;strokeColor=none;fillColor=none;align=center;verticalAlign=middle;whiteSpace=wrap;rounded=0;" vertex="1" parent="1">
          <mxGeometry x="334" y="160.5" width="55" height="27.5" as="geometry" />
        </mxCell>
        <mxCell id="gqt7VWo0npzINOgCtDPw-18" value="" style="rounded=1;whiteSpace=wrap;html=1;" vertex="1" parent="1">
          <mxGeometry x="536.75" y="350" width="80" height="60" as="geometry" />
        </mxCell>
        <mxCell id="gqt7VWo0npzINOgCtDPw-21" value="Sim" style="text;html=1;align=center;verticalAlign=middle;resizable=0;points=[];autosize=1;strokeColor=none;" vertex="1" parent="1">
          <mxGeometry x="355.5" y="270" width="40" height="20" as="geometry" />
        </mxCell>
        <mxCell id="gqt7VWo0npzINOgCtDPw-22" value="&lt;span style=&quot;color: rgba(0 , 0 , 0 , 0) ; font-family: monospace ; font-size: 0px ; font-weight: 400&quot;&gt;%3CmxGraphModel%3E%3Croot%3E%3CmxCell%20id%3D%220%22%2F%3E%3CmxCell%20id%3D%221%22%20parent%3D%220%22%2F%3E%3CmxCell%20id%3D%222%22%20value%3D%22Agendamento%22%20style%3D%22text%3Bhtml%3D1%3BstrokeColor%3Dnone%3BfillColor%3Dnone%3Balign%3Dcenter%3BverticalAlign%3Dmiddle%3BwhiteSpace%3Dwrap%3Brounded%3D0%3B%22%20vertex%3D%221%22%20parent%3D%221%22%3E%3CmxGeometry%20x%3D%22548%22%20y%3D%22365%22%20width%3D%2257.5%22%20height%3D%2230%22%20as%3D%22geometry%22%2F%3E%3C%2FmxCell%3E%3C%2Froot%3E%3C%2FmxGraphModel%3E&lt;/span&gt;&lt;span style=&quot;color: rgba(0 , 0 , 0 , 0) ; font-family: monospace ; font-size: 0px ; font-weight: 400&quot;&gt;%3CmxGraphModel%3E%3Croot%3E%3CmxCell%20id%3D%220%22%2F%3E%3CmxCell%20id%3D%221%22%20parent%3D%220%22%2F%3E%3CmxCell%20id%3D%222%22%20value%3D%22Agendamento%22%20style%3D%22text%3Bhtml%3D1%3BstrokeColor%3Dnone%3BfillColor%3Dnone%3Balign%3Dcenter%3BverticalAlign%3Dmiddle%3BwhiteSpace%3Dwrap%3Brounded%3D0%3B%22%20vertex%3D%221%22%20parent%3D%221%22%3E%3CmxGeometry%20x%3D%22548%22%20y%3D%22365%22%20width%3D%2257.5%22%20height%3D%2230%22%20as%3D%22geometry%22%2F%3E%3C%2FmxCell%3E%3C%2Froot%3E%3C%2FmxGraphModel%3E&lt;/span&gt;" style="rounded=1;whiteSpace=wrap;html=1;fontStyle=1" vertex="1" parent="1">
          <mxGeometry x="308" y="350" width="87.5" height="60" as="geometry" />
        </mxCell>
        <mxCell id="gqt7VWo0npzINOgCtDPw-23" value="" style="html=1;verticalAlign=bottom;endArrow=block;" edge="1" parent="1">
          <mxGeometry x="0.2" y="4" width="80" relative="1" as="geometry">
            <mxPoint x="397.25" y="379.5" as="sourcePoint" />
            <mxPoint x="535.25" y="379.5" as="targetPoint" />
            <mxPoint as="offset" />
          </mxGeometry>
        </mxCell>
        <mxCell id="gqt7VWo0npzINOgCtDPw-28" value="" style="html=1;verticalAlign=bottom;endArrow=block;exitX=0.5;exitY=0;exitDx=0;exitDy=0;" edge="1" parent="1" source="gqt7VWo0npzINOgCtDPw-18">
          <mxGeometry x="0.2" y="4" width="80" relative="1" as="geometry">
            <mxPoint x="551.5" y="270" as="sourcePoint" />
            <mxPoint x="577" y="290" as="targetPoint" />
            <mxPoint as="offset" />
          </mxGeometry>
        </mxCell>
        <mxCell id="gqt7VWo0npzINOgCtDPw-30" value="Agendamento&lt;br&gt;Realizado" style="text;html=1;strokeColor=none;fillColor=none;align=center;verticalAlign=middle;whiteSpace=wrap;rounded=0;" vertex="1" parent="1">
          <mxGeometry x="437.5" y="340" width="57.5" height="30" as="geometry" />
        </mxCell>
        <mxCell id="gqt7VWo0npzINOgCtDPw-31" value="Retirada" style="text;html=1;strokeColor=none;fillColor=none;align=center;verticalAlign=middle;whiteSpace=wrap;rounded=0;" vertex="1" parent="1">
          <mxGeometry x="548" y="365" width="57.5" height="30" as="geometry" />
        </mxCell>
        <mxCell id="gqt7VWo0npzINOgCtDPw-32" value="" style="ellipse;html=1;shape=endState;fillColor=#000000;strokeColor=#ff0000;" vertex="1" parent="1">
          <mxGeometry x="562.75" y="250" width="30" height="30" as="geometry" />
        </mxCell>
        <mxCell id="gqt7VWo0npzINOgCtDPw-34" value="" style="ellipse;html=1;shape=startState;fillColor=#000000;strokeColor=#FF0000;" vertex="1" parent="1">
          <mxGeometry x="160" y="570" width="30" height="30" as="geometry" />
        </mxCell>
        <mxCell id="gqt7VWo0npzINOgCtDPw-35" value="" style="html=1;verticalAlign=bottom;endArrow=block;strokeColor=#FF0000;" edge="1" parent="1">
          <mxGeometry x="0.2" y="4" width="80" relative="1" as="geometry">
            <mxPoint x="188" y="584.5" as="sourcePoint" />
            <mxPoint x="326" y="584.5" as="targetPoint" />
            <mxPoint as="offset" />
          </mxGeometry>
        </mxCell>
        <mxCell id="gqt7VWo0npzINOgCtDPw-36" value="Usuário&amp;nbsp;&lt;br&gt;Cadastrado" style="rounded=1;whiteSpace=wrap;html=1;fontStyle=1;strokeColor=#FF0000;" vertex="1" parent="1">
          <mxGeometry x="328.75" y="555" width="87.5" height="60" as="geometry" />
        </mxCell>
        <mxCell id="gqt7VWo0npzINOgCtDPw-37" value="Solicitar Material" style="rounded=1;whiteSpace=wrap;html=1;fontStyle=1;strokeColor=#FF0000;" vertex="1" parent="1">
          <mxGeometry x="522.5" y="555" width="77.5" height="65" as="geometry" />
        </mxCell>
        <mxCell id="gqt7VWo0npzINOgCtDPw-38" value="" style="html=1;verticalAlign=bottom;endArrow=block;strokeColor=#FF0000;" edge="1" parent="1">
          <mxGeometry x="0.2" y="4" width="80" relative="1" as="geometry">
            <mxPoint x="416.25" y="584.5" as="sourcePoint" />
            <mxPoint x="520" y="585" as="targetPoint" />
            <mxPoint as="offset" />
          </mxGeometry>
        </mxCell>
        <mxCell id="gqt7VWo0npzINOgCtDPw-39" value="Usuário se&amp;nbsp;&lt;br&gt;cadastra" style="text;html=1;align=center;verticalAlign=middle;resizable=0;points=[];autosize=1;strokeColor=#FF0000;" vertex="1" parent="1">
          <mxGeometry x="220" y="550" width="80" height="30" as="geometry" />
        </mxCell>
        <mxCell id="gqt7VWo0npzINOgCtDPw-40" value="Habilitado para" style="text;html=1;align=center;verticalAlign=middle;resizable=0;points=[];autosize=1;strokeColor=#FF0000;" vertex="1" parent="1">
          <mxGeometry x="416.25" y="610" width="100" height="20" as="geometry" />
        </mxCell>
        <mxCell id="gqt7VWo0npzINOgCtDPw-41" value="" style="html=1;verticalAlign=bottom;endArrow=block;exitX=0.5;exitY=1;exitDx=0;exitDy=0;strokeColor=#FF0000;" edge="1" parent="1" source="gqt7VWo0npzINOgCtDPw-36">
          <mxGeometry x="0.2" y="4" width="80" relative="1" as="geometry">
            <mxPoint x="389" y="660" as="sourcePoint" />
            <mxPoint x="520" y="690" as="targetPoint" />
            <mxPoint as="offset" />
          </mxGeometry>
        </mxCell>
        <mxCell id="gqt7VWo0npzINOgCtDPw-42" value="Descartar Material" style="rounded=1;whiteSpace=wrap;html=1;fontStyle=1;strokeColor=#FF0000;" vertex="1" parent="1">
          <mxGeometry x="522.5" y="660" width="77.5" height="65" as="geometry" />
        </mxCell>
        <mxCell id="gqt7VWo0npzINOgCtDPw-43" value="" style="html=1;verticalAlign=bottom;endArrow=block;entryX=0;entryY=0.417;entryDx=0;entryDy=0;entryPerimeter=0;strokeColor=#FF0000;" edge="1" parent="1" target="gqt7VWo0npzINOgCtDPw-45">
          <mxGeometry x="0.2" y="4" width="80" relative="1" as="geometry">
            <mxPoint x="600" y="587" as="sourcePoint" />
            <mxPoint x="703.75" y="587.5" as="targetPoint" />
            <mxPoint as="offset" />
          </mxGeometry>
        </mxCell>
        <mxCell id="gqt7VWo0npzINOgCtDPw-44" value="" style="html=1;verticalAlign=bottom;endArrow=block;strokeColor=#FF0000;" edge="1" parent="1">
          <mxGeometry x="0.2" y="4" width="80" relative="1" as="geometry">
            <mxPoint x="600" y="692" as="sourcePoint" />
            <mxPoint x="710" y="600" as="targetPoint" />
            <mxPoint as="offset" />
            <Array as="points" />
          </mxGeometry>
        </mxCell>
        <mxCell id="gqt7VWo0npzINOgCtDPw-45" value="" style="ellipse;html=1;shape=endState;fillColor=#000000;strokeColor=#FF0000;" vertex="1" parent="1">
          <mxGeometry x="710" y="575" width="30" height="30" as="geometry" />
        </mxCell>
        <mxCell id="gqt7VWo0npzINOgCtDPw-47" value="" style="ellipse;html=1;shape=startState;fillColor=#000000;strokeColor=#ff0000;" vertex="1" parent="1">
          <mxGeometry x="160" y="830" width="30" height="30" as="geometry" />
        </mxCell>
        <mxCell id="gqt7VWo0npzINOgCtDPw-48" value="" style="html=1;verticalAlign=bottom;endArrow=block;" edge="1" parent="1">
          <mxGeometry x="0.2" y="4" width="80" relative="1" as="geometry">
            <mxPoint x="188" y="844.5" as="sourcePoint" />
            <mxPoint x="290" y="845" as="targetPoint" />
            <mxPoint as="offset" />
          </mxGeometry>
        </mxCell>
        <mxCell id="gqt7VWo0npzINOgCtDPw-49" value="Material&lt;br&gt;cadastrado" style="rounded=1;whiteSpace=wrap;html=1;fontStyle=1" vertex="1" parent="1">
          <mxGeometry x="291" y="817.5" width="87.5" height="60" as="geometry" />
        </mxCell>
        <mxCell id="gqt7VWo0npzINOgCtDPw-50" value="Material&lt;br&gt;Solicitado" style="rounded=1;whiteSpace=wrap;html=1;fontStyle=1" vertex="1" parent="1">
          <mxGeometry x="621" y="820" width="77.5" height="65" as="geometry" />
        </mxCell>
        <mxCell id="gqt7VWo0npzINOgCtDPw-52" value="Material" style="text;html=1;align=center;verticalAlign=middle;resizable=0;points=[];autosize=1;strokeColor=none;" vertex="1" parent="1">
          <mxGeometry x="210" y="817.5" width="60" height="20" as="geometry" />
        </mxCell>
        <mxCell id="gqt7VWo0npzINOgCtDPw-57" value="" style="ellipse;html=1;shape=endState;fillColor=#000000;strokeColor=#ff0000;" vertex="1" parent="1">
          <mxGeometry x="646" y="926" width="30" height="30" as="geometry" />
        </mxCell>
        <mxCell id="gqt7VWo0npzINOgCtDPw-59" value="Material&lt;br&gt;Disponível" style="rounded=1;whiteSpace=wrap;html=1;fontStyle=1" vertex="1" parent="1">
          <mxGeometry x="461.25" y="817.5" width="77.5" height="65" as="geometry" />
        </mxCell>
        <mxCell id="gqt7VWo0npzINOgCtDPw-60" value="" style="html=1;verticalAlign=bottom;endArrow=block;" edge="1" parent="1">
          <mxGeometry x="0.2" y="4" width="80" relative="1" as="geometry">
            <mxPoint x="538.75" y="851" as="sourcePoint" />
            <mxPoint x="622.5" y="851" as="targetPoint" />
            <mxPoint as="offset" />
          </mxGeometry>
        </mxCell>
        <mxCell id="gqt7VWo0npzINOgCtDPw-65" value="" style="html=1;verticalAlign=bottom;endArrow=block;exitX=0.5;exitY=1;exitDx=0;exitDy=0;" edge="1" parent="1" source="gqt7VWo0npzINOgCtDPw-59">
          <mxGeometry x="0.2" y="4" width="80" relative="1" as="geometry">
            <mxPoint x="500" y="910" as="sourcePoint" />
            <mxPoint x="500" y="920" as="targetPoint" />
            <mxPoint as="offset" />
          </mxGeometry>
        </mxCell>
        <mxCell id="gqt7VWo0npzINOgCtDPw-68" value="Material&lt;br&gt;Indisponível" style="rounded=1;whiteSpace=wrap;html=1;fontStyle=1" vertex="1" parent="1">
          <mxGeometry x="456.25" y="920" width="88.5" height="60" as="geometry" />
        </mxCell>
        <mxCell id="gqt7VWo0npzINOgCtDPw-69" value="Não" style="text;html=1;align=center;verticalAlign=middle;resizable=0;points=[];autosize=1;strokeColor=none;" vertex="1" parent="1">
          <mxGeometry x="498.75" y="890" width="40" height="20" as="geometry" />
        </mxCell>
        <mxCell id="gqt7VWo0npzINOgCtDPw-71" value="" style="html=1;verticalAlign=bottom;endArrow=block;exitX=0.5;exitY=1;exitDx=0;exitDy=0;" edge="1" parent="1" source="gqt7VWo0npzINOgCtDPw-50">
          <mxGeometry x="0.2" y="4" width="80" relative="1" as="geometry">
            <mxPoint x="878" y="849.5" as="sourcePoint" />
            <mxPoint x="660" y="920" as="targetPoint" />
            <mxPoint as="offset" />
          </mxGeometry>
        </mxCell>
        <mxCell id="gqt7VWo0npzINOgCtDPw-73" value="" style="html=1;verticalAlign=bottom;endArrow=block;exitX=0.5;exitY=1;exitDx=0;exitDy=0;entryX=0.583;entryY=-0.017;entryDx=0;entryDy=0;entryPerimeter=0;" edge="1" parent="1" source="gqt7VWo0npzINOgCtDPw-14" target="gqt7VWo0npzINOgCtDPw-22">
          <mxGeometry x="0.2" y="4" width="80" relative="1" as="geometry">
            <mxPoint x="311" y="300" as="sourcePoint" />
            <mxPoint x="449" y="300" as="targetPoint" />
            <mxPoint as="offset" />
          </mxGeometry>
        </mxCell>
        <mxCell id="gqt7VWo0npzINOgCtDPw-77" value="" style="html=1;verticalAlign=bottom;endArrow=block;" edge="1" parent="1">
          <mxGeometry x="0.2" y="4" width="80" relative="1" as="geometry">
            <mxPoint x="400" y="173.75" as="sourcePoint" />
            <mxPoint x="538" y="173.75" as="targetPoint" />
            <mxPoint as="offset" />
          </mxGeometry>
        </mxCell>
        <mxCell id="gqt7VWo0npzINOgCtDPw-78" value="" style="rounded=1;whiteSpace=wrap;html=1;" vertex="1" parent="1">
          <mxGeometry x="538.75" y="140" width="80" height="60" as="geometry" />
        </mxCell>
        <mxCell id="gqt7VWo0npzINOgCtDPw-80" value="" style="html=1;verticalAlign=bottom;endArrow=block;exitX=0.5;exitY=1;exitDx=0;exitDy=0;" edge="1" parent="1" source="gqt7VWo0npzINOgCtDPw-78">
          <mxGeometry x="0.2" y="4" width="80" relative="1" as="geometry">
            <mxPoint x="617" y="169" as="sourcePoint" />
            <mxPoint x="579" y="240" as="targetPoint" />
            <mxPoint as="offset" />
          </mxGeometry>
        </mxCell>
        <mxCell id="gqt7VWo0npzINOgCtDPw-81" value="Não" style="text;html=1;align=center;verticalAlign=middle;resizable=0;points=[];autosize=1;strokeColor=none;" vertex="1" parent="1">
          <mxGeometry x="416.25" y="150" width="40" height="20" as="geometry" />
        </mxCell>
        <mxCell id="gqt7VWo0npzINOgCtDPw-82" value="Material&amp;nbsp;&lt;br&gt;Insdisponível" style="text;html=1;strokeColor=none;fillColor=none;align=center;verticalAlign=middle;whiteSpace=wrap;rounded=0;" vertex="1" parent="1">
          <mxGeometry x="551" y="153" width="57.5" height="30" as="geometry" />
        </mxCell>
        <mxCell id="gqt7VWo0npzINOgCtDPw-83" value="Class: Solicitação de Material" style="text;html=1;strokeColor=none;fillColor=none;align=center;verticalAlign=middle;whiteSpace=wrap;rounded=0;" vertex="1" parent="1">
          <mxGeometry x="170" y="70" width="170" height="27.5" as="geometry" />
        </mxCell>
        <mxCell id="gqt7VWo0npzINOgCtDPw-84" value="Agendamento" style="text;html=1;strokeColor=none;fillColor=none;align=center;verticalAlign=middle;whiteSpace=wrap;rounded=0;" vertex="1" parent="1">
          <mxGeometry x="321" y="365" width="57.5" height="30" as="geometry" />
        </mxCell>
        <mxCell id="gqt7VWo0npzINOgCtDPw-85" value="Class: Pessoal- NÃO" style="text;html=1;fillColor=none;align=center;verticalAlign=middle;whiteSpace=wrap;rounded=0;strokeColor=#FF0000;" vertex="1" parent="1">
          <mxGeometry x="170" y="470" width="170" height="27.5" as="geometry" />
        </mxCell>
        <mxCell id="gqt7VWo0npzINOgCtDPw-86" value="" style="html=1;verticalAlign=bottom;endArrow=block;" edge="1" parent="1">
          <mxGeometry x="0.2" y="4" width="80" relative="1" as="geometry">
            <mxPoint x="380" y="850" as="sourcePoint" />
            <mxPoint x="460" y="850" as="targetPoint" />
            <mxPoint as="offset" />
          </mxGeometry>
        </mxCell>
        <mxCell id="gqt7VWo0npzINOgCtDPw-87" value="Sim" style="text;html=1;align=center;verticalAlign=middle;resizable=0;points=[];autosize=1;strokeColor=none;" vertex="1" parent="1">
          <mxGeometry x="541.25" y="830" width="40" height="20" as="geometry" />
        </mxCell>
        <mxCell id="gqt7VWo0npzINOgCtDPw-88" value="" style="html=1;verticalAlign=bottom;endArrow=block;" edge="1" parent="1">
          <mxGeometry x="0.2" y="4" width="80" relative="1" as="geometry">
            <mxPoint x="544.75" y="949.5" as="sourcePoint" />
            <mxPoint x="640" y="950" as="targetPoint" />
            <mxPoint as="offset" />
          </mxGeometry>
        </mxCell>
      </root>
    </mxGraphModel>
  </diagram>
</mxfile>
